<?xml version="1.0" encoding="iso-8859-1"?>
<!-- Generator: Adobe Illustrator 19.0.0, SVG Export Plug-In . SVG Version: 6.00 Build 0)  -->
<svg version="1.1" id="Capa_1" xmlns="http://www.w3.org/2000/svg" xmlns:xlink="http://www.w3.org/1999/xlink" x="0px" y="0px"
	 viewBox="0 0 511.999 511.999" style="enable-background:new 0 0 511.999 511.999;" xml:space="preserve">
<g>
	<g>
		<path d="M225.975,407.334c-8.291,0-15.012,6.721-15.012,15.012v15.012c0,8.291,6.721,15.012,15.012,15.012
			c8.291,0,15.012-6.721,15.012-15.012v-15.012C240.987,414.056,234.266,407.334,225.975,407.334z"/>
	</g>
</g>
<g>
	<g>
		<path d="M286.024,407.334c-8.291,0-15.012,6.721-15.012,15.012v15.012c0,8.291,6.721,15.012,15.012,15.012
			c8.291,0,15.012-6.721,15.012-15.012v-15.012C301.036,414.056,294.315,407.334,286.024,407.334z"/>
	</g>
</g>
<g>
	<g>
		<circle cx="165.926" cy="166.136" r="15.012"/>
	</g>
</g>
<g>
	<g>
		<circle cx="346.073" cy="166.136" r="15.012"/>
	</g>
</g>
<g>
	<g>
		<path d="M255.999,0C147.703,0,30.815,97.955,30.815,256.21c0,26.964,13.707,51.966,40.742,74.311
			c15.809,13.068,36.294,25.273,60.995,36.373c-2.86,9.519-6.68,19.425-11.973,30.012l-13.536,27.071
			c-5.617,11.233-6.278,24.408-1.815,36.147c5.036,13.248,16.58,23.238,26.634,26.252c6.325,2.497,38.37,17.164,84.77,23.073
			c13.362,1.701,26.674,2.551,39.925,2.551c45.734,0,81.48-9.246,118.579-23.598c2.084-0.806,8.766-3.533,9.971-4.147
			c9.905-5.05,17.689-13.664,21.667-24.131c4.464-11.739,3.802-24.913-1.814-36.147l-13.537-27.069
			c-5.291-10.584-9.12-20.488-11.991-30.004c24.705-11.099,45.193-23.306,61.004-36.374c27.038-22.348,40.748-47.353,40.748-74.319
			C481.184,97.955,364.296,0,255.999,0z M378.707,449.453c-2.815,7.409-8.587,8.656-16.775,11.931
			c-69.678,27.873-146.483,27.235-216.269-1.795c-4.154-1.728-9.673-3.037-12.372-10.134c-1.509-3.97-1.294-8.25,0.604-12.049
			l13.536-27.07c17.778-35.554,21.146-64.45,24.404-92.394c1.058-9.075,2.152-18.46,3.741-27.916
			c0.028-0.17,0.054-0.342,0.077-0.513c0.571-4.311,2.86-8.02,6.446-10.447c3.566-2.413,7.962-3.2,12.046-2.157
			c16.796,15.216,38.44,23.667,60.945,23.801c0.185,0.001,0.367,0.002,0.552,0.002c21.156,0,41.757-7.19,58.065-20.276
			c5.714-4.587,11.609-3.008,13.877-2.118c2.27,0.892,7.663,3.744,8.727,10.965l0.033,0.237c0.022,0.168,0.048,0.336,0.075,0.504
			c1.521,9.048,2.53,17.819,3.6,27.104c3.243,28.175,6.596,57.31,24.544,93.205l13.537,27.069
			C380.002,441.203,380.217,445.482,378.707,449.453z M219.947,259.217c8.374-11.196,21.609-18.019,36.053-18.019
			c14.429,0,27.65,6.808,36.026,17.982C272.809,272.756,243.68,276.396,219.947,259.217z M372.82,336.908
			c-1.187-7.733-2.074-15.41-2.971-23.213c-1.059-9.197-2.153-18.705-3.784-28.455l-0.047-0.33
			c-2.324-15.79-12.588-28.702-27.458-34.54c-5.994-2.354-12.221-3.331-18.338-3.032c-13.458-22.277-37.612-36.164-64.223-36.164
			c-26.262,0-50.121,13.532-63.678,35.3c-9.503-0.373-19.004,2.284-27.044,7.724c-10.552,7.14-17.591,18.457-19.348,31.085
			c-1.692,10.117-2.822,19.808-3.915,29.181c-0.879,7.537-1.744,14.955-2.885,22.421c-38.88-18.265-78.289-45.465-78.289-80.674
			c0-138.757,101.166-226.185,195.16-226.185c93.748,0,195.16,87.111,195.16,226.185C451.16,291.433,411.718,318.642,372.82,336.908
			z"/>
	</g>
</g>
<g>
</g>
<g>
</g>
<g>
</g>
<g>
</g>
<g>
</g>
<g>
</g>
<g>
</g>
<g>
</g>
<g>
</g>
<g>
</g>
<g>
</g>
<g>
</g>
<g>
</g>
<g>
</g>
<g>
</g>
</svg>
